<svg width="28" height="28" viewBox="0 0 28 28" fill="none" xmlns="http://www.w3.org/2000/svg">
<rect width="28" height="28" rx="14" fill="white" fill-opacity="0.9"/>
<path d="M15.6995 20.6653H12.9011V11.7765H15.6995V13.2579C16.296 12.4544 17.2005 11.9754 18.1655 11.952C19.9009 11.9622 21.3012 13.4575 21.2962 15.295V20.6653H18.4978V15.6653C18.3859 14.8377 17.7155 14.2236 16.9259 14.2253C16.5805 14.2369 16.2544 14.397 16.023 14.6688C15.7916 14.9405 15.6747 15.3004 15.6995 15.6653V20.6653ZM11.502 20.6653H8.70361V11.7765H11.502V20.6653ZM10.1028 10.295C9.33004 10.295 8.70361 9.63171 8.70361 8.81351C8.70361 7.99531 9.33004 7.33203 10.1028 7.33203C10.8755 7.33203 11.502 7.99531 11.502 8.81351C11.502 9.20642 11.3545 9.58324 11.0922 9.86107C10.8298 10.1389 10.4739 10.295 10.1028 10.295Z" fill="#2B2B2B"/>
</svg>
